<?xml version="1.0" encoding="UTF-8" standalone="no"?>
<svg xmlns="http://www.w3.org/2000/svg" width="60" height="60" viewBox="0 0 60 60">
  <!-- Background -->
  <circle cx="30" cy="30" r="29" fill="#F8F9FA" stroke="#4A00E0" stroke-width="2" />
  
  <!-- Head -->
  <circle cx="30" cy="25" r="15" fill="#FFD166" />
  
  <!-- Hair -->
  <path d="M15,25 C15,15 25,10 30,10 C35,10 45,15 45,25" fill="#8E2DE2" />
  <path d="M15,25 C15,15 25,10 30,10 C35,10 45,15 45,25" fill="none" stroke="#000000" stroke-width="0.5" />
  
  <!-- Eyes -->
  <ellipse cx="23" cy="23" rx="3" ry="4" fill="#FFFFFF" stroke="#000000" stroke-width="0.5" />
  <ellipse cx="37" cy="23" rx="3" ry="4" fill="#FFFFFF" stroke="#000000" stroke-width="0.5" />
  
  <!-- Pupils - looking away (lazy) -->
  <circle cx="24.5" cy="23" r="1.5" fill="#000000" />
  <circle cx="38.5" cy="23" r="1.5" fill="#000000" />
  
  <!-- Eyebrows -->
  <path d="M20,18 C22,16 25,17 26,18" fill="none" stroke="#000000" stroke-width="1" />
  <path d="M34,18 C36,16 39,17 40,18" fill="none" stroke="#000000" stroke-width="1" />
  
  <!-- Mouth - slight smile -->
  <path d="M25,32 C28,35 32,35 35,32" fill="none" stroke="#000000" stroke-width="1" />
  
  <!-- Body/Shirt -->
  <path d="M20,40 L15,55 L45,55 L40,40 C35,45 25,45 20,40 Z" fill="#4ECDC4" />
  
  <!-- Collar -->
  <path d="M25,40 L30,45 L35,40" fill="none" stroke="#000000" stroke-width="1" />
  
  <!-- Headphones -->
  <path d="M15,25 C12,25 12,30 15,30" fill="#FF6B6B" stroke="#000000" stroke-width="0.5" />
  <path d="M45,25 C48,25 48,30 45,30" fill="#FF6B6B" stroke="#000000" stroke-width="0.5" />
  <path d="M15,25 C15,15 25,10 30,10 C35,10 45,15 45,25" fill="none" stroke="#FF6B6B" stroke-width="2" />
</svg>
