<?xml version="1.0" encoding="UTF-8" standalone="no"?>
<svg xmlns="http://www.w3.org/2000/svg" width="50" height="50" viewBox="0 0 50 50">
  <style>
    @keyframes pulse {
      0%, 100% { transform: scale(1); }
      50% { transform: scale(1.1); }
    }
    .pulsing {
      animation: pulse 2s infinite;
    }
  </style>
  
  <!-- Background -->
  <circle cx="25" cy="25" r="24" fill="#FFCCFF" stroke="#000000" stroke-width="1" />
  
  <!-- Face -->
  <circle cx="17" cy="20" r="3" fill="#000000" /> <!-- Left eye -->
  <circle cx="33" cy="20" r="3" fill="#000000" /> <!-- Right eye -->
  
  <!-- Excited expression -->
  <path d="M17,30 Q25,38 33,30" stroke="#000000" stroke-width="2" fill="none" />
  
  <!-- Hair - wild -->
  <path d="M5,20 Q25,-5 45,20" stroke="#FF6600" stroke-width="10" fill="none" />
  <path d="M5,25 Q15,5 25,15" stroke="#FF6600" stroke-width="5" fill="none" />
  <path d="M45,25 Q35,5 25,15" stroke="#FF6600" stroke-width="5" fill="none" />
  
  <!-- Idea lightbulb -->
  <g class="pulsing" transform="translate(38, 15)">
    <circle cx="0" cy="0" r="5" fill="#FFFF00" stroke="#FF9900" stroke-width="0.5" />
    <line x1="0" y1="-7" x2="0" y2="-5" stroke="#FF9900" stroke-width="1" />
    <line x1="-5" y1="-5" x2="-3" y2="-3" stroke="#FF9900" stroke-width="1" />
    <line x1="5" y1="-5" x2="3" y2="-3" stroke="#FF9900" stroke-width="1" />
    <line x1="-7" y1="0" x2="-5" y2="0" stroke="#FF9900" stroke-width="1" />
    <line x1="7" y1="0" x2="5" y2="0" stroke="#FF9900" stroke-width="1" />
  </g>
  
  <!-- Notepad -->
  <g transform="translate(15, 40)">
    <rect x="0" y="0" width="10" height="15" fill="#FFFFFF" stroke="#000000" stroke-width="1" />
    <line x1="2" y1="3" x2="8" y2="3" stroke="#000000" stroke-width="0.5" />
    <line x1="2" y1="6" x2="8" y2="6" stroke="#000000" stroke-width="0.5" />
    <line x1="2" y1="9" x2="8" y2="9" stroke="#000000" stroke-width="0.5" />
    <line x1="2" y1="12" x2="8" y2="12" stroke="#000000" stroke-width="0.5" />
  </g>
</svg>
