<?xml version="1.0" encoding="UTF-8" standalone="no"?>
<svg xmlns="http://www.w3.org/2000/svg" width="200" height="200" viewBox="0 0 200 200">
  <!-- Background -->
  <rect width="200" height="200" fill="#000080" />
  
  <!-- Grid pattern -->
  <defs>
    <pattern id="grid" width="40" height="40" patternUnits="userSpaceOnUse">
      <path d="M 40 0 L 0 0 0 40" fill="none" stroke="#4A00E0" stroke-width="0.5" opacity="0.3" />
    </pattern>
  </defs>
  <rect width="200" height="200" fill="url(#grid)" />
  
  <!-- Stars -->
  <g opacity="0.8">
    <circle cx="20" cy="30" r="0.8" fill="#FFFFFF" />
    <circle cx="50" cy="10" r="0.6" fill="#FFFFFF" />
    <circle cx="80" cy="40" r="1" fill="#FFFFFF" />
    <circle cx="120" cy="20" r="0.7" fill="#FFFFFF" />
    <circle cx="150" cy="50" r="0.9" fill="#FFFFFF" />
    <circle cx="180" cy="15" r="0.6" fill="#FFFFFF" />
    <circle cx="30" cy="70" r="0.8" fill="#FFFFFF" />
    <circle cx="60" cy="90" r="0.7" fill="#FFFFFF" />
    <circle cx="100" cy="60" r="1.2" fill="#FFFFFF" />
    <circle cx="140" cy="80" r="0.6" fill="#FFFFFF" />
    <circle cx="170" cy="100" r="0.9" fill="#FFFFFF" />
    <circle cx="10" cy="120" r="0.7" fill="#FFFFFF" />
    <circle cx="40" cy="150" r="0.8" fill="#FFFFFF" />
    <circle cx="70" cy="130" r="0.6" fill="#FFFFFF" />
    <circle cx="110" cy="160" r="1" fill="#FFFFFF" />
    <circle cx="130" cy="140" r="0.7" fill="#FFFFFF" />
    <circle cx="160" cy="170" r="0.9" fill="#FFFFFF" />
    <circle cx="190" cy="190" r="0.8" fill="#FFFFFF" />
  </g>
  
  <!-- Larger stars with glow -->
  <defs>
    <filter id="starGlow" x="-50%" y="-50%" width="200%" height="200%">
      <feGaussianBlur stdDeviation="1" result="blur" />
      <feComposite in="SourceGraphic" in2="blur" operator="over" />
    </filter>
  </defs>
  
  <circle cx="25" cy="25" r="1.5" fill="#FFFFFF" filter="url(#starGlow)" />
  <circle cx="175" cy="75" r="1.8" fill="#FFFFFF" filter="url(#starGlow)" />
  <circle cx="75" cy="175" r="1.6" fill="#FFFFFF" filter="url(#starGlow)" />
  <circle cx="125" cy="125" r="2" fill="#FFFFFF" filter="url(#starGlow)" />
  
  <!-- Shooting star -->
  <line x1="10" y1="50" x2="30" y2="70" stroke="#FFFFFF" stroke-width="0.5" opacity="0.7">
    <animate attributeName="opacity" values="0.7;0;0.7" dur="5s" repeatCount="indefinite" />
  </line>
  <line x1="170" y1="130" x2="190" y2="150" stroke="#FFFFFF" stroke-width="0.5" opacity="0.7">
    <animate attributeName="opacity" values="0.7;0;0.7" dur="7s" repeatCount="indefinite" />
  </line>
</svg>
